<mxfile host="65bd71144e">
    <diagram id="wZ-LsRuxaPbQyOSmDm_J" name="Page-1">
        <mxGraphModel dx="1737" dy="2114" grid="1" gridSize="10" guides="1" tooltips="1" connect="1" arrows="1" fold="1" page="1" pageScale="1" pageWidth="850" pageHeight="1100" math="0" shadow="0">
            <root>
                <mxCell id="0"/>
                <mxCell id="1" parent="0"/>
                <mxCell id="2" value="&lt;p style=&quot;color: rgb(0, 0, 0); font-family: &amp;quot;Times New Roman&amp;quot;; font-size: medium; text-wrap-mode: wrap;&quot;&gt;4. Aufgabe&lt;/p&gt;&lt;p style=&quot;color: rgb(0, 0, 0); font-family: &amp;quot;Times New Roman&amp;quot;; font-size: medium; text-wrap-mode: wrap;&quot;&gt;Als Mitarbeiter der AMAG Soft GmbH sind Sie mit dem Management der Datenbank NotaufnahmeManagement der FIT betraut. Die nachfolgenden Tasks sollen in diesem Rahmen von Ihnen abgearbeitet werden. Die Tabellenauszüge (siehe perforierte Anlage) stehen für die Bearbeitung der Tasks zur Verfügung.&lt;/p&gt;&lt;p style=&quot;color: rgb(0, 0, 0); font-family: &amp;quot;Times New Roman&amp;quot;; font-size: medium; text-wrap-mode: wrap;&quot;&gt;Erstellen Sie die SQL-Anweisungen für folgende Teilaufgaben:&lt;/p&gt;&lt;p style=&quot;color: rgb(0, 0, 0); font-family: &amp;quot;Times New Roman&amp;quot;; font-size: medium; text-wrap-mode: wrap;&quot;&gt;a) Fügen Sie einen neuen Arzt mit den Angaben „Horner, Hugo, Allgemeinmedizin“ in die Tabelle Aerzte hinzu.&lt;/p&gt;&lt;p style=&quot;color: rgb(0, 0, 0); font-family: &amp;quot;Times New Roman&amp;quot;; font-size: medium; text-wrap-mode: wrap;&quot;&gt;&lt;/p&gt;&lt;p style=&quot;color: rgb(0, 0, 0); font-family: &amp;quot;Times New Roman&amp;quot;; font-size: medium; text-wrap-mode: wrap;&quot;&gt;b) Dem bereits existierenden Benutzer hhorner sollen Schreibrechte auf die Tabelle Verschreibungen der Datenbank NotaufnahmeManagement gewährt werden.&lt;/p&gt;&lt;p style=&quot;color: rgb(0, 0, 0); font-family: &amp;quot;Times New Roman&amp;quot;; font-size: medium; text-wrap-mode: wrap;&quot;&gt;&lt;/p&gt;&lt;p style=&quot;color: rgb(0, 0, 0); font-family: &amp;quot;Times New Roman&amp;quot;; font-size: medium; text-wrap-mode: wrap;&quot;&gt;c) Dem Benutzer slinkel sollen die Schreibrechte für die Tabelle Verschreibungen der Datenbank NotaufnahmeManagement entzogen werden.&lt;/p&gt;&lt;p style=&quot;color: rgb(0, 0, 0); font-family: &amp;quot;Times New Roman&amp;quot;; font-size: medium; text-wrap-mode: wrap;&quot;&gt;&lt;/p&gt;&lt;p style=&quot;color: rgb(0, 0, 0); font-family: &amp;quot;Times New Roman&amp;quot;; font-size: medium; text-wrap-mode: wrap;&quot;&gt;d) In der bereits existierenden Tabelle Aerzte soll die Spalte Email jetzt zum Pflichtfeld werden. Die Tabelle ist bereits mit Datensätzen gefüllt. Eventuell fehlt bei manchen Ärzten der Email-Eintrag, für diese Fälle soll die E-Mail-Adresse „info@fit.de“ eingetragen werden.&lt;/p&gt;&lt;p style=&quot;color: rgb(0, 0, 0); font-family: &amp;quot;Times New Roman&amp;quot;; font-size: medium; text-wrap-mode: wrap;&quot;&gt;Schreiben Sie die notwendigen Anweisungen, um bei Bedarf die E-Mail-Adresse zu ergänzen und die Spalte Email zum Pflichtfeld zu machen.&lt;/p&gt;" style="text;html=1;align=left;verticalAlign=middle;resizable=0;points=[];autosize=1;strokeColor=none;fillColor=none;" vertex="1" parent="1">
                    <mxGeometry x="40" y="-330" width="1730" height="350" as="geometry"/>
                </mxCell>
            </root>
        </mxGraphModel>
    </diagram>
</mxfile>